<?xml version="1.0" encoding="UTF-8" standalone="no"?>
<!DOCTYPE svg PUBLIC "-//W3C//DTD SVG 1.1//EN"
 "http://www.w3.org/Graphics/SVG/1.1/DTD/svg11.dtd">
<!-- Generated by graphviz version 2.38.0 (20140413.2041)
 -->
<!-- Title: controllers_diagram Pages: 1 -->
<svg width="686pt" height="755pt"
 viewBox="0.00 0.00 686.35 755.00" xmlns="http://www.w3.org/2000/svg" xmlns:xlink="http://www.w3.org/1999/xlink">
<g id="graph0" class="graph" transform="scale(1 1) rotate(0) translate(258.707 445.5)">
<title>controllers_diagram</title>
<polygon fill="white" stroke="none" points="-258.707,309.5 -258.707,-445.5 427.638,-445.5 427.638,309.5 -258.707,309.5"/>
<!-- _diagram_info -->
<g id="node1" class="node"><title>_diagram_info</title>
<text text-anchor="start" x="93.3123" y="127.9" font-family="Times,serif" font-size="13.00">Controllers diagram</text>
<text text-anchor="start" x="93.3123" y="140.9" font-family="Times,serif" font-size="13.00">Date: Mar 17 2015 &#45; 11:10</text>
<text text-anchor="start" x="93.3123" y="153.9" font-family="Times,serif" font-size="13.00">Migration version: 20150316153019</text>
<text text-anchor="start" x="93.3123" y="166.9" font-family="Times,serif" font-size="13.00">Generated by RailRoady 1.3.0</text>
<text text-anchor="start" x="93.3123" y="179.9" font-family="Times,serif" font-size="13.00">http://railroady.prestonlee.com</text>
</g>
<!-- AnswersController -->
<g id="node2" class="node"><title>AnswersController</title>
<path fill="none" stroke="black" d="M164.731,-154C164.731,-154 263.269,-154 263.269,-154 269.269,-154 275.269,-160 275.269,-166 275.269,-166 275.269,-344 275.269,-344 275.269,-350 269.269,-356 263.269,-356 263.269,-356 164.731,-356 164.731,-356 158.731,-356 152.731,-350 152.731,-344 152.731,-344 152.731,-166 152.731,-166 152.731,-160 158.731,-154 164.731,-154"/>
<text text-anchor="middle" x="214" y="-340.8" font-family="Times,serif" font-size="14.00">AnswersController</text>
<polyline fill="none" stroke="black" points="152.731,-334 275.269,-334 "/>
<text text-anchor="start" x="160.731" y="-318.8" font-family="Times,serif" font-size="14.00">create</text>
<text text-anchor="start" x="160.731" y="-304.8" font-family="Times,serif" font-size="14.00">destroy</text>
<text text-anchor="start" x="160.731" y="-290.8" font-family="Times,serif" font-size="14.00">edit</text>
<text text-anchor="start" x="160.731" y="-276.8" font-family="Times,serif" font-size="14.00">index</text>
<text text-anchor="start" x="160.731" y="-262.8" font-family="Times,serif" font-size="14.00">new</text>
<text text-anchor="start" x="160.731" y="-248.8" font-family="Times,serif" font-size="14.00">show</text>
<text text-anchor="start" x="160.731" y="-234.8" font-family="Times,serif" font-size="14.00">update</text>
<polyline fill="none" stroke="black" points="152.731,-228 275.269,-228 "/>
<polyline fill="none" stroke="black" points="152.731,-204 275.269,-204 "/>
<text text-anchor="start" x="160.731" y="-188.8" font-family="Times,serif" font-size="14.00">_layout</text>
<text text-anchor="start" x="160.731" y="-174.8" font-family="Times,serif" font-size="14.00">answer_params</text>
<text text-anchor="start" x="160.731" y="-160.8" font-family="Times,serif" font-size="14.00">set_answer</text>
</g>
<!-- ApplicationController -->
<g id="node3" class="node"><title>ApplicationController</title>
<path fill="none" stroke="black" d="M-73.1484,220C-73.1484,220 47.1484,220 47.1484,220 53.1484,220 59.1484,214 59.1484,208 59.1484,208 59.1484,142 59.1484,142 59.1484,136 53.1484,130 47.1484,130 47.1484,130 -73.1484,130 -73.1484,130 -79.1484,130 -85.1484,136 -85.1484,142 -85.1484,142 -85.1484,208 -85.1484,208 -85.1484,214 -79.1484,220 -73.1484,220"/>
<text text-anchor="middle" x="-13" y="145.2" font-family="Times,serif" font-size="14.00">ApplicationController</text>
<polyline fill="none" stroke="black" points="-85.1484,152 59.1484,152 "/>
<text text-anchor="start" x="-77.1484" y="167.2" font-family="Times,serif" font-size="14.00">after_sign_in_path_for</text>
<polyline fill="none" stroke="black" points="-85.1484,174 59.1484,174 "/>
<polyline fill="none" stroke="black" points="-85.1484,198 59.1484,198 "/>
<text text-anchor="start" x="-77.1484" y="213.2" font-family="Times,serif" font-size="14.00">_layout</text>
</g>
<!-- CategoriesController -->
<g id="node4" class="node"><title>CategoriesController</title>
<path fill="none" stroke="black" d="M-242.707,-1C-242.707,-1 -133.293,-1 -133.293,-1 -127.293,-1 -121.293,-7 -121.293,-13 -121.293,-13 -121.293,-191 -121.293,-191 -121.293,-197 -127.293,-203 -133.293,-203 -133.293,-203 -242.707,-203 -242.707,-203 -248.707,-203 -254.707,-197 -254.707,-191 -254.707,-191 -254.707,-13 -254.707,-13 -254.707,-7 -248.707,-1 -242.707,-1"/>
<text text-anchor="middle" x="-188" y="-187.8" font-family="Times,serif" font-size="14.00">CategoriesController</text>
<polyline fill="none" stroke="black" points="-254.707,-181 -121.293,-181 "/>
<text text-anchor="start" x="-246.707" y="-165.8" font-family="Times,serif" font-size="14.00">create</text>
<text text-anchor="start" x="-246.707" y="-151.8" font-family="Times,serif" font-size="14.00">destroy</text>
<text text-anchor="start" x="-246.707" y="-137.8" font-family="Times,serif" font-size="14.00">edit</text>
<text text-anchor="start" x="-246.707" y="-123.8" font-family="Times,serif" font-size="14.00">index</text>
<text text-anchor="start" x="-246.707" y="-109.8" font-family="Times,serif" font-size="14.00">new</text>
<text text-anchor="start" x="-246.707" y="-95.8" font-family="Times,serif" font-size="14.00">show</text>
<text text-anchor="start" x="-246.707" y="-81.8" font-family="Times,serif" font-size="14.00">update</text>
<polyline fill="none" stroke="black" points="-254.707,-75 -121.293,-75 "/>
<polyline fill="none" stroke="black" points="-254.707,-51 -121.293,-51 "/>
<text text-anchor="start" x="-246.707" y="-35.8" font-family="Times,serif" font-size="14.00">_layout</text>
<text text-anchor="start" x="-246.707" y="-21.8" font-family="Times,serif" font-size="14.00">category_params</text>
<text text-anchor="start" x="-246.707" y="-7.8" font-family="Times,serif" font-size="14.00">set_category</text>
</g>
<!-- DashboardController -->
<g id="node5" class="node"><title>DashboardController</title>
<path fill="none" stroke="black" d="M96.9033,305C96.9033,305 207.097,305 207.097,305 213.097,305 219.097,299 219.097,293 219.097,293 219.097,227 219.097,227 219.097,221 213.097,215 207.097,215 207.097,215 96.9033,215 96.9033,215 90.9033,215 84.9033,221 84.9033,227 84.9033,227 84.9033,293 84.9033,293 84.9033,299 90.9033,305 96.9033,305"/>
<text text-anchor="middle" x="152" y="230.2" font-family="Times,serif" font-size="14.00">DashboardController</text>
<polyline fill="none" stroke="black" points="84.9033,237 219.097,237 "/>
<text text-anchor="start" x="92.9033" y="252.2" font-family="Times,serif" font-size="14.00">index</text>
<polyline fill="none" stroke="black" points="84.9033,259 219.097,259 "/>
<polyline fill="none" stroke="black" points="84.9033,283 219.097,283 "/>
<text text-anchor="start" x="92.9033" y="298.2" font-family="Times,serif" font-size="14.00">_layout</text>
</g>
<!-- ExamBoardsController -->
<g id="node6" class="node"><title>ExamBoardsController</title>
<path fill="none" stroke="black" d="M97.0688,84C97.0688,84 218.931,84 218.931,84 224.931,84 230.931,78 230.931,72 230.931,72 230.931,-106 230.931,-106 230.931,-112 224.931,-118 218.931,-118 218.931,-118 97.0688,-118 97.0688,-118 91.0688,-118 85.0688,-112 85.0688,-106 85.0688,-106 85.0688,72 85.0688,72 85.0688,78 91.0688,84 97.0688,84"/>
<text text-anchor="middle" x="158" y="-102.8" font-family="Times,serif" font-size="14.00">ExamBoardsController</text>
<polyline fill="none" stroke="black" points="85.0688,-96 230.931,-96 "/>
<text text-anchor="start" x="93.0688" y="-80.8" font-family="Times,serif" font-size="14.00">create</text>
<text text-anchor="start" x="93.0688" y="-66.8" font-family="Times,serif" font-size="14.00">destroy</text>
<text text-anchor="start" x="93.0688" y="-52.8" font-family="Times,serif" font-size="14.00">edit</text>
<text text-anchor="start" x="93.0688" y="-38.8" font-family="Times,serif" font-size="14.00">index</text>
<text text-anchor="start" x="93.0688" y="-24.8" font-family="Times,serif" font-size="14.00">new</text>
<text text-anchor="start" x="93.0688" y="-10.8" font-family="Times,serif" font-size="14.00">show</text>
<text text-anchor="start" x="93.0688" y="3.2" font-family="Times,serif" font-size="14.00">update</text>
<polyline fill="none" stroke="black" points="85.0688,10 230.931,10 "/>
<polyline fill="none" stroke="black" points="85.0688,34 230.931,34 "/>
<text text-anchor="start" x="93.0688" y="49.2" font-family="Times,serif" font-size="14.00">_layout</text>
<text text-anchor="start" x="93.0688" y="63.2" font-family="Times,serif" font-size="14.00">exam_board_params</text>
<text text-anchor="start" x="93.0688" y="77.2" font-family="Times,serif" font-size="14.00">set_exam_board</text>
</g>
<!-- HomeController -->
<g id="node7" class="node"><title>HomeController</title>
<path fill="none" stroke="black" d="M267.121,305C267.121,305 350.879,305 350.879,305 356.879,305 362.879,299 362.879,293 362.879,293 362.879,227 362.879,227 362.879,221 356.879,215 350.879,215 350.879,215 267.121,215 267.121,215 261.121,215 255.121,221 255.121,227 255.121,227 255.121,293 255.121,293 255.121,299 261.121,305 267.121,305"/>
<text text-anchor="middle" x="309" y="230.2" font-family="Times,serif" font-size="14.00">HomeController</text>
<polyline fill="none" stroke="black" points="255.121,237 362.879,237 "/>
<text text-anchor="start" x="263.121" y="252.2" font-family="Times,serif" font-size="14.00">index</text>
<polyline fill="none" stroke="black" points="255.121,259 362.879,259 "/>
<polyline fill="none" stroke="black" points="255.121,283 362.879,283 "/>
<text text-anchor="start" x="263.121" y="298.2" font-family="Times,serif" font-size="14.00">_layout</text>
</g>
<!-- QuestionsController -->
<g id="node8" class="node"><title>QuestionsController</title>
<path fill="none" stroke="black" d="M-72.7725,-137C-72.7725,-137 32.7725,-137 32.7725,-137 38.7725,-137 44.7725,-143 44.7725,-149 44.7725,-149 44.7725,-327 44.7725,-327 44.7725,-333 38.7725,-339 32.7725,-339 32.7725,-339 -72.7725,-339 -72.7725,-339 -78.7725,-339 -84.7725,-333 -84.7725,-327 -84.7725,-327 -84.7725,-149 -84.7725,-149 -84.7725,-143 -78.7725,-137 -72.7725,-137"/>
<text text-anchor="middle" x="-20" y="-323.8" font-family="Times,serif" font-size="14.00">QuestionsController</text>
<polyline fill="none" stroke="black" points="-84.7725,-317 44.7725,-317 "/>
<text text-anchor="start" x="-76.7725" y="-301.8" font-family="Times,serif" font-size="14.00">create</text>
<text text-anchor="start" x="-76.7725" y="-287.8" font-family="Times,serif" font-size="14.00">destroy</text>
<text text-anchor="start" x="-76.7725" y="-273.8" font-family="Times,serif" font-size="14.00">edit</text>
<text text-anchor="start" x="-76.7725" y="-259.8" font-family="Times,serif" font-size="14.00">index</text>
<text text-anchor="start" x="-76.7725" y="-245.8" font-family="Times,serif" font-size="14.00">new</text>
<text text-anchor="start" x="-76.7725" y="-231.8" font-family="Times,serif" font-size="14.00">show</text>
<text text-anchor="start" x="-76.7725" y="-217.8" font-family="Times,serif" font-size="14.00">update</text>
<polyline fill="none" stroke="black" points="-84.7725,-211 44.7725,-211 "/>
<polyline fill="none" stroke="black" points="-84.7725,-187 44.7725,-187 "/>
<text text-anchor="start" x="-76.7725" y="-171.8" font-family="Times,serif" font-size="14.00">_layout</text>
<text text-anchor="start" x="-76.7725" y="-157.8" font-family="Times,serif" font-size="14.00">question_params</text>
<text text-anchor="start" x="-76.7725" y="-143.8" font-family="Times,serif" font-size="14.00">set_question</text>
</g>
<!-- RegistrationsController -->
<g id="node9" class="node"><title>RegistrationsController</title>
<path fill="none" stroke="black" d="M284.362,84C284.362,84 411.638,84 411.638,84 417.638,84 423.638,78 423.638,72 423.638,72 423.638,-24 423.638,-24 423.638,-30 417.638,-36 411.638,-36 411.638,-36 284.362,-36 284.362,-36 278.362,-36 272.362,-30 272.362,-24 272.362,-24 272.362,72 272.362,72 272.362,78 278.362,84 284.362,84"/>
<text text-anchor="middle" x="348" y="-20.8" font-family="Times,serif" font-size="14.00">RegistrationsController</text>
<polyline fill="none" stroke="black" points="272.362,-14 423.638,-14 "/>
<polyline fill="none" stroke="black" points="272.362,10 423.638,10 "/>
<polyline fill="none" stroke="black" points="272.362,34 423.638,34 "/>
<text text-anchor="start" x="280.362" y="49.2" font-family="Times,serif" font-size="14.00">_layout</text>
<text text-anchor="start" x="280.362" y="63.2" font-family="Times,serif" font-size="14.00">account_update_params</text>
<text text-anchor="start" x="280.362" y="77.2" font-family="Times,serif" font-size="14.00">sign_up_params</text>
</g>
<!-- SchoolsController -->
<g id="node10" class="node"><title>SchoolsController</title>
<path fill="none" stroke="black" d="M-225.941,237C-225.941,237 -132.059,237 -132.059,237 -126.059,237 -120.059,231 -120.059,225 -120.059,225 -120.059,47 -120.059,47 -120.059,41 -126.059,35 -132.059,35 -132.059,35 -225.941,35 -225.941,35 -231.941,35 -237.941,41 -237.941,47 -237.941,47 -237.941,225 -237.941,225 -237.941,231 -231.941,237 -225.941,237"/>
<text text-anchor="middle" x="-179" y="50.2" font-family="Times,serif" font-size="14.00">SchoolsController</text>
<polyline fill="none" stroke="black" points="-237.941,57 -120.059,57 "/>
<text text-anchor="start" x="-229.941" y="72.2" font-family="Times,serif" font-size="14.00">create</text>
<text text-anchor="start" x="-229.941" y="86.2" font-family="Times,serif" font-size="14.00">destroy</text>
<text text-anchor="start" x="-229.941" y="100.2" font-family="Times,serif" font-size="14.00">edit</text>
<text text-anchor="start" x="-229.941" y="114.2" font-family="Times,serif" font-size="14.00">index</text>
<text text-anchor="start" x="-229.941" y="128.2" font-family="Times,serif" font-size="14.00">new</text>
<text text-anchor="start" x="-229.941" y="142.2" font-family="Times,serif" font-size="14.00">show</text>
<text text-anchor="start" x="-229.941" y="156.2" font-family="Times,serif" font-size="14.00">update</text>
<polyline fill="none" stroke="black" points="-237.941,163 -120.059,163 "/>
<polyline fill="none" stroke="black" points="-237.941,187 -120.059,187 "/>
<text text-anchor="start" x="-229.941" y="202.2" font-family="Times,serif" font-size="14.00">_layout</text>
<text text-anchor="start" x="-229.941" y="216.2" font-family="Times,serif" font-size="14.00">school_params</text>
<text text-anchor="start" x="-229.941" y="230.2" font-family="Times,serif" font-size="14.00">set_school</text>
</g>
<!-- TestsController -->
<g id="node11" class="node"><title>TestsController</title>
<path fill="none" stroke="black" d="M-209.06,-239C-209.06,-239 -130.94,-239 -130.94,-239 -124.94,-239 -118.94,-245 -118.94,-251 -118.94,-251 -118.94,-429 -118.94,-429 -118.94,-435 -124.94,-441 -130.94,-441 -130.94,-441 -209.06,-441 -209.06,-441 -215.06,-441 -221.06,-435 -221.06,-429 -221.06,-429 -221.06,-251 -221.06,-251 -221.06,-245 -215.06,-239 -209.06,-239"/>
<text text-anchor="middle" x="-170" y="-425.8" font-family="Times,serif" font-size="14.00">TestsController</text>
<polyline fill="none" stroke="black" points="-221.06,-419 -118.94,-419 "/>
<text text-anchor="start" x="-213.06" y="-403.8" font-family="Times,serif" font-size="14.00">create</text>
<text text-anchor="start" x="-213.06" y="-389.8" font-family="Times,serif" font-size="14.00">destroy</text>
<text text-anchor="start" x="-213.06" y="-375.8" font-family="Times,serif" font-size="14.00">edit</text>
<text text-anchor="start" x="-213.06" y="-361.8" font-family="Times,serif" font-size="14.00">index</text>
<text text-anchor="start" x="-213.06" y="-347.8" font-family="Times,serif" font-size="14.00">new</text>
<text text-anchor="start" x="-213.06" y="-333.8" font-family="Times,serif" font-size="14.00">show</text>
<text text-anchor="start" x="-213.06" y="-319.8" font-family="Times,serif" font-size="14.00">update</text>
<polyline fill="none" stroke="black" points="-221.06,-313 -118.94,-313 "/>
<polyline fill="none" stroke="black" points="-221.06,-289 -118.94,-289 "/>
<text text-anchor="start" x="-213.06" y="-273.8" font-family="Times,serif" font-size="14.00">_layout</text>
<text text-anchor="start" x="-213.06" y="-259.8" font-family="Times,serif" font-size="14.00">set_test</text>
<text text-anchor="start" x="-213.06" y="-245.8" font-family="Times,serif" font-size="14.00">test_params</text>
</g>
<!-- YearGroupsController -->
<g id="node12" class="node"><title>YearGroupsController</title>
<path fill="none" stroke="black" d="M-73.2856,101C-73.2856,101 43.2856,101 43.2856,101 49.2856,101 55.2856,95 55.2856,89 55.2856,89 55.2856,-89 55.2856,-89 55.2856,-95 49.2856,-101 43.2856,-101 43.2856,-101 -73.2856,-101 -73.2856,-101 -79.2856,-101 -85.2856,-95 -85.2856,-89 -85.2856,-89 -85.2856,89 -85.2856,89 -85.2856,95 -79.2856,101 -73.2856,101"/>
<text text-anchor="middle" x="-15" y="-85.8" font-family="Times,serif" font-size="14.00">YearGroupsController</text>
<polyline fill="none" stroke="black" points="-85.2856,-79 55.2856,-79 "/>
<text text-anchor="start" x="-77.2856" y="-63.8" font-family="Times,serif" font-size="14.00">create</text>
<text text-anchor="start" x="-77.2856" y="-49.8" font-family="Times,serif" font-size="14.00">destroy</text>
<text text-anchor="start" x="-77.2856" y="-35.8" font-family="Times,serif" font-size="14.00">edit</text>
<text text-anchor="start" x="-77.2856" y="-21.8" font-family="Times,serif" font-size="14.00">index</text>
<text text-anchor="start" x="-77.2856" y="-7.8" font-family="Times,serif" font-size="14.00">new</text>
<text text-anchor="start" x="-77.2856" y="6.2" font-family="Times,serif" font-size="14.00">show</text>
<text text-anchor="start" x="-77.2856" y="20.2" font-family="Times,serif" font-size="14.00">update</text>
<polyline fill="none" stroke="black" points="-85.2856,27 55.2856,27 "/>
<polyline fill="none" stroke="black" points="-85.2856,51 55.2856,51 "/>
<text text-anchor="start" x="-77.2856" y="66.2" font-family="Times,serif" font-size="14.00">_layout</text>
<text text-anchor="start" x="-77.2856" y="80.2" font-family="Times,serif" font-size="14.00">set_year_group</text>
<text text-anchor="start" x="-77.2856" y="94.2" font-family="Times,serif" font-size="14.00">year_group_params</text>
</g>
</g>
</svg>
