<?xml version="1.0" encoding="UTF-8" standalone="no"?>
<!DOCTYPE svg PUBLIC "-//W3C//DTD SVG 1.1//EN"
 "http://www.w3.org/Graphics/SVG/1.1/DTD/svg11.dtd">
<!-- Generated by graphviz version 2.38.0 (20140413.2041)
 -->
<!-- Title: models_diagram Pages: 1 -->
<svg width="1292pt" height="1216pt"
 viewBox="0.00 0.00 1291.97 1216.00" xmlns="http://www.w3.org/2000/svg" xmlns:xlink="http://www.w3.org/1999/xlink">
<g id="graph0" class="graph" transform="scale(1 1) rotate(0) translate(4 1212)">
<title>models_diagram</title>
<polygon fill="white" stroke="none" points="-4,4 -4,-1212 1287.97,-1212 1287.97,4 -4,4"/>
<!-- _diagram_info -->
<g id="node1" class="node"><title>_diagram_info</title>
<text text-anchor="start" x="8" y="-1186.6" font-family="Times,serif" font-size="13.00">Models diagram</text>
<text text-anchor="start" x="8" y="-1173.6" font-family="Times,serif" font-size="13.00">Date: Mar 17 2015 &#45; 11:09</text>
<text text-anchor="start" x="8" y="-1160.6" font-family="Times,serif" font-size="13.00">Migration version: 20150316153019</text>
<text text-anchor="start" x="8" y="-1147.6" font-family="Times,serif" font-size="13.00">Generated by RailRoady 1.3.0</text>
<text text-anchor="start" x="8" y="-1134.6" font-family="Times,serif" font-size="13.00">http://railroady.prestonlee.com</text>
</g>
<!-- Ability -->
<g id="node2" class="node"><title>Ability</title>
<polygon fill="none" stroke="black" points="225.853,-1142.5 225.853,-1186.5 281.522,-1186.5 281.522,-1142.5 225.853,-1142.5"/>
<text text-anchor="middle" x="253.688" y="-1171.3" font-family="Times,serif" font-size="14.00">Ability</text>
<polyline fill="none" stroke="black" points="225.853,-1164.5 281.522,-1164.5 "/>
<text text-anchor="middle" x="253.688" y="-1149.3" font-family="Times,serif" font-size="14.00"> </text>
</g>
<!-- Admin -->
<g id="node3" class="node"><title>Admin</title>
<path fill="none" stroke="black" d="M1091.41,-373.5C1091.41,-373.5 1271.97,-373.5 1271.97,-373.5 1277.97,-373.5 1283.97,-379.5 1283.97,-385.5 1283.97,-385.5 1283.97,-643.5 1283.97,-643.5 1283.97,-649.5 1277.97,-655.5 1271.97,-655.5 1271.97,-655.5 1091.41,-655.5 1091.41,-655.5 1085.41,-655.5 1079.41,-649.5 1079.41,-643.5 1079.41,-643.5 1079.41,-385.5 1079.41,-385.5 1079.41,-379.5 1085.41,-373.5 1091.41,-373.5"/>
<text text-anchor="middle" x="1181.69" y="-640.3" font-family="Times,serif" font-size="14.00">Admin</text>
<polyline fill="none" stroke="black" points="1079.41,-633.5 1283.97,-633.5 "/>
<text text-anchor="start" x="1087.41" y="-618.3" font-family="Times,serif" font-size="14.00">id :integer</text>
<text text-anchor="start" x="1087.41" y="-604.3" font-family="Times,serif" font-size="14.00">email :string</text>
<text text-anchor="start" x="1087.41" y="-590.3" font-family="Times,serif" font-size="14.00">encrypted_password :string</text>
<text text-anchor="start" x="1087.41" y="-576.3" font-family="Times,serif" font-size="14.00">reset_password_token :string</text>
<text text-anchor="start" x="1087.41" y="-562.3" font-family="Times,serif" font-size="14.00">reset_password_sent_at :datetime</text>
<text text-anchor="start" x="1087.41" y="-548.3" font-family="Times,serif" font-size="14.00">remember_created_at :datetime</text>
<text text-anchor="start" x="1087.41" y="-534.3" font-family="Times,serif" font-size="14.00">sign_in_count :integer</text>
<text text-anchor="start" x="1087.41" y="-520.3" font-family="Times,serif" font-size="14.00">current_sign_in_at :datetime</text>
<text text-anchor="start" x="1087.41" y="-506.3" font-family="Times,serif" font-size="14.00">last_sign_in_at :datetime</text>
<text text-anchor="start" x="1087.41" y="-492.3" font-family="Times,serif" font-size="14.00">current_sign_in_ip :string</text>
<text text-anchor="start" x="1087.41" y="-478.3" font-family="Times,serif" font-size="14.00">last_sign_in_ip :string</text>
<text text-anchor="start" x="1087.41" y="-464.3" font-family="Times,serif" font-size="14.00">created_at :datetime</text>
<text text-anchor="start" x="1087.41" y="-450.3" font-family="Times,serif" font-size="14.00">updated_at :datetime</text>
<text text-anchor="start" x="1087.41" y="-436.3" font-family="Times,serif" font-size="14.00">type :string</text>
<text text-anchor="start" x="1087.41" y="-422.3" font-family="Times,serif" font-size="14.00">first_name :string</text>
<text text-anchor="start" x="1087.41" y="-408.3" font-family="Times,serif" font-size="14.00">last_name :string</text>
<text text-anchor="start" x="1087.41" y="-394.3" font-family="Times,serif" font-size="14.00">birthday :date</text>
<text text-anchor="start" x="1087.41" y="-380.3" font-family="Times,serif" font-size="14.00">school_id :integer</text>
</g>
<!-- Test -->
<g id="node12" class="node"><title>Test</title>
<path fill="none" stroke="black" d="M638.738,-207.5C638.738,-207.5 758.638,-207.5 758.638,-207.5 764.638,-207.5 770.638,-213.5 770.638,-219.5 770.638,-219.5 770.638,-309.5 770.638,-309.5 770.638,-315.5 764.638,-321.5 758.638,-321.5 758.638,-321.5 638.738,-321.5 638.738,-321.5 632.738,-321.5 626.738,-315.5 626.738,-309.5 626.738,-309.5 626.738,-219.5 626.738,-219.5 626.738,-213.5 632.738,-207.5 638.738,-207.5"/>
<text text-anchor="middle" x="698.688" y="-306.3" font-family="Times,serif" font-size="14.00">Test</text>
<polyline fill="none" stroke="black" points="626.738,-299.5 770.638,-299.5 "/>
<text text-anchor="start" x="634.738" y="-284.3" font-family="Times,serif" font-size="14.00">id :integer</text>
<text text-anchor="start" x="634.738" y="-270.3" font-family="Times,serif" font-size="14.00">year_group_id :integer</text>
<text text-anchor="start" x="634.738" y="-256.3" font-family="Times,serif" font-size="14.00">duration :integer</text>
<text text-anchor="start" x="634.738" y="-242.3" font-family="Times,serif" font-size="14.00">user_id :integer</text>
<text text-anchor="start" x="634.738" y="-228.3" font-family="Times,serif" font-size="14.00">created_at :datetime</text>
<text text-anchor="start" x="634.738" y="-214.3" font-family="Times,serif" font-size="14.00">updated_at :datetime</text>
</g>
<!-- Admin&#45;&gt;Test -->
<g id="edge1" class="edge"><title>Admin&#45;&gt;Test</title>
<path fill="none" stroke="#3773bf" d="M1072.71,-375.069C1071.71,-374.368 1070.7,-373.678 1069.69,-373 981.379,-313.883 860.234,-286.763 780.747,-274.679"/>
<ellipse fill="none" stroke="#3773bf" cx="1076.03" cy="-377.497" rx="4.00002" ry="4.00002"/>
<polygon fill="#3773bf" stroke="#3773bf" points="780.676,-274.668 771.439,-268.757 775.729,-273.939 770.783,-273.209 770.783,-273.209 770.783,-273.209 775.729,-273.939 770.126,-277.661 780.676,-274.668 780.676,-274.668"/>
</g>
<!-- Answer -->
<g id="node4" class="node"><title>Answer</title>
<path fill="none" stroke="black" d="M460.51,-0.5C460.51,-0.5 592.865,-0.5 592.865,-0.5 598.865,-0.5 604.865,-6.5 604.865,-12.5 604.865,-12.5 604.865,-130.5 604.865,-130.5 604.865,-136.5 598.865,-142.5 592.865,-142.5 592.865,-142.5 460.51,-142.5 460.51,-142.5 454.51,-142.5 448.51,-136.5 448.51,-130.5 448.51,-130.5 448.51,-12.5 448.51,-12.5 448.51,-6.5 454.51,-0.5 460.51,-0.5"/>
<text text-anchor="middle" x="526.688" y="-127.3" font-family="Times,serif" font-size="14.00">Answer</text>
<polyline fill="none" stroke="black" points="448.51,-120.5 604.865,-120.5 "/>
<text text-anchor="start" x="456.51" y="-105.3" font-family="Times,serif" font-size="14.00">id :integer</text>
<text text-anchor="start" x="456.51" y="-91.3" font-family="Times,serif" font-size="14.00">content :text</text>
<text text-anchor="start" x="456.51" y="-77.3" font-family="Times,serif" font-size="14.00">marks :integer</text>
<text text-anchor="start" x="456.51" y="-63.3" font-family="Times,serif" font-size="14.00">reference :boolean</text>
<text text-anchor="start" x="456.51" y="-49.3" font-family="Times,serif" font-size="14.00">created_at :datetime</text>
<text text-anchor="start" x="456.51" y="-35.3" font-family="Times,serif" font-size="14.00">updated_at :datetime</text>
<text text-anchor="start" x="456.51" y="-21.3" font-family="Times,serif" font-size="14.00">test_id :integer</text>
<text text-anchor="start" x="456.51" y="-7.3" font-family="Times,serif" font-size="14.00">question_part_id :integer</text>
</g>
<!-- Category -->
<g id="node5" class="node"><title>Category</title>
<path fill="none" stroke="black" d="M618.182,-1121.5C618.182,-1121.5 727.193,-1121.5 727.193,-1121.5 733.193,-1121.5 739.193,-1127.5 739.193,-1133.5 739.193,-1133.5 739.193,-1195.5 739.193,-1195.5 739.193,-1201.5 733.193,-1207.5 727.193,-1207.5 727.193,-1207.5 618.182,-1207.5 618.182,-1207.5 612.182,-1207.5 606.182,-1201.5 606.182,-1195.5 606.182,-1195.5 606.182,-1133.5 606.182,-1133.5 606.182,-1127.5 612.182,-1121.5 618.182,-1121.5"/>
<text text-anchor="middle" x="672.688" y="-1192.3" font-family="Times,serif" font-size="14.00">Category</text>
<polyline fill="none" stroke="black" points="606.182,-1185.5 739.193,-1185.5 "/>
<text text-anchor="start" x="614.182" y="-1170.3" font-family="Times,serif" font-size="14.00">id :integer</text>
<text text-anchor="start" x="614.182" y="-1156.3" font-family="Times,serif" font-size="14.00">name :string</text>
<text text-anchor="start" x="614.182" y="-1142.3" font-family="Times,serif" font-size="14.00">created_at :datetime</text>
<text text-anchor="start" x="614.182" y="-1128.3" font-family="Times,serif" font-size="14.00">updated_at :datetime</text>
</g>
<!-- Question -->
<g id="node7" class="node"><title>Question</title>
<path fill="none" stroke="black" d="M305.738,-955.5C305.738,-955.5 425.638,-955.5 425.638,-955.5 431.638,-955.5 437.638,-961.5 437.638,-967.5 437.638,-967.5 437.638,-1071.5 437.638,-1071.5 437.638,-1077.5 431.638,-1083.5 425.638,-1083.5 425.638,-1083.5 305.738,-1083.5 305.738,-1083.5 299.738,-1083.5 293.738,-1077.5 293.738,-1071.5 293.738,-1071.5 293.738,-967.5 293.738,-967.5 293.738,-961.5 299.738,-955.5 305.738,-955.5"/>
<text text-anchor="middle" x="365.688" y="-1068.3" font-family="Times,serif" font-size="14.00">Question</text>
<polyline fill="none" stroke="black" points="293.738,-1061.5 437.638,-1061.5 "/>
<text text-anchor="start" x="301.738" y="-1046.3" font-family="Times,serif" font-size="14.00">id :integer</text>
<text text-anchor="start" x="301.738" y="-1032.3" font-family="Times,serif" font-size="14.00">description :text</text>
<text text-anchor="start" x="301.738" y="-1018.3" font-family="Times,serif" font-size="14.00">marks :integer</text>
<text text-anchor="start" x="301.738" y="-1004.3" font-family="Times,serif" font-size="14.00">created_at :datetime</text>
<text text-anchor="start" x="301.738" y="-990.3" font-family="Times,serif" font-size="14.00">updated_at :datetime</text>
<text text-anchor="start" x="301.738" y="-976.3" font-family="Times,serif" font-size="14.00">year_group_id :integer</text>
<text text-anchor="start" x="301.738" y="-962.3" font-family="Times,serif" font-size="14.00">category_id :integer</text>
</g>
<!-- Category&#45;&gt;Question -->
<g id="edge2" class="edge"><title>Category&#45;&gt;Question</title>
<path fill="none" stroke="#034d76" d="M598.676,-1129.03C552.909,-1107.71 494.121,-1080.32 447.048,-1058.4"/>
<ellipse fill="none" stroke="#034d76" cx="602.447" cy="-1130.78" rx="4.00002" ry="4.00002"/>
<polygon fill="#034d76" stroke="#034d76" points="446.862,-1058.31 439.698,-1050.01 442.33,-1056.2 437.797,-1054.09 437.797,-1054.09 437.797,-1054.09 442.33,-1056.2 435.897,-1058.17 446.862,-1058.31 446.862,-1058.31"/>
</g>
<!-- Category&#45;&gt;Test -->
<g id="edge3" class="edge"><title>Category&#45;&gt;Test</title>
<path fill="none" stroke="#991d2e" d="M748.042,-1128.88C787.903,-1104.89 828.688,-1068.59 828.688,-1020.5 828.688,-1020.5 828.688,-1020.5 828.688,-513.5 828.688,-450.487 838.108,-429.24 809.688,-373 801.623,-357.04 790.232,-342.104 777.795,-328.739"/>
<polygon fill="#991d2e" stroke="#991d2e" points="747.944,-1128.94 737.037,-1130.07 743.621,-1131.45 739.298,-1133.96 739.298,-1133.96 739.298,-1133.96 743.621,-1131.45 741.56,-1137.85 747.944,-1128.94 747.944,-1128.94"/>
<polygon fill="#991d2e" stroke="#991d2e" points="777.735,-328.677 774.03,-318.356 774.263,-325.078 770.792,-321.48 770.792,-321.48 770.792,-321.48 774.263,-325.078 767.553,-324.604 777.735,-328.677 777.735,-328.677"/>
</g>
<!-- ExamBoard -->
<g id="node6" class="node"><title>ExamBoard</title>
<path fill="none" stroke="black" d="M395.182,-831.5C395.182,-831.5 504.193,-831.5 504.193,-831.5 510.193,-831.5 516.193,-837.5 516.193,-843.5 516.193,-843.5 516.193,-905.5 516.193,-905.5 516.193,-911.5 510.193,-917.5 504.193,-917.5 504.193,-917.5 395.182,-917.5 395.182,-917.5 389.182,-917.5 383.182,-911.5 383.182,-905.5 383.182,-905.5 383.182,-843.5 383.182,-843.5 383.182,-837.5 389.182,-831.5 395.182,-831.5"/>
<text text-anchor="middle" x="449.688" y="-902.3" font-family="Times,serif" font-size="14.00">ExamBoard</text>
<polyline fill="none" stroke="black" points="383.182,-895.5 516.193,-895.5 "/>
<text text-anchor="start" x="391.182" y="-880.3" font-family="Times,serif" font-size="14.00">id :integer</text>
<text text-anchor="start" x="391.182" y="-866.3" font-family="Times,serif" font-size="14.00">name :string</text>
<text text-anchor="start" x="391.182" y="-852.3" font-family="Times,serif" font-size="14.00">created_at :datetime</text>
<text text-anchor="start" x="391.182" y="-838.3" font-family="Times,serif" font-size="14.00">updated_at :datetime</text>
</g>
<!-- School -->
<g id="node9" class="node"><title>School</title>
<path fill="none" stroke="black" d="M413.017,-693.5C413.017,-693.5 538.359,-693.5 538.359,-693.5 544.359,-693.5 550.359,-699.5 550.359,-705.5 550.359,-705.5 550.359,-781.5 550.359,-781.5 550.359,-787.5 544.359,-793.5 538.359,-793.5 538.359,-793.5 413.017,-793.5 413.017,-793.5 407.017,-793.5 401.017,-787.5 401.017,-781.5 401.017,-781.5 401.017,-705.5 401.017,-705.5 401.017,-699.5 407.017,-693.5 413.017,-693.5"/>
<text text-anchor="middle" x="475.688" y="-778.3" font-family="Times,serif" font-size="14.00">School</text>
<polyline fill="none" stroke="black" points="401.017,-771.5 550.359,-771.5 "/>
<text text-anchor="start" x="409.017" y="-756.3" font-family="Times,serif" font-size="14.00">id :integer</text>
<text text-anchor="start" x="409.017" y="-742.3" font-family="Times,serif" font-size="14.00">name :string</text>
<text text-anchor="start" x="409.017" y="-728.3" font-family="Times,serif" font-size="14.00">created_at :datetime</text>
<text text-anchor="start" x="409.017" y="-714.3" font-family="Times,serif" font-size="14.00">updated_at :datetime</text>
<text text-anchor="start" x="409.017" y="-700.3" font-family="Times,serif" font-size="14.00">exam_board_id :integer</text>
</g>
<!-- ExamBoard&#45;&gt;School -->
<g id="edge4" class="edge"><title>ExamBoard&#45;&gt;School</title>
<path fill="none" stroke="#caaa4a" d="M459.825,-823.204C461.114,-816.809 462.442,-810.219 463.756,-803.701"/>
<ellipse fill="none" stroke="#caaa4a" cx="458.991" cy="-827.339" rx="4.00001" ry="4.00001"/>
<polygon fill="#caaa4a" stroke="#caaa4a" points="463.824,-803.36 470.212,-794.446 464.812,-798.458 465.8,-793.557 465.8,-793.557 465.8,-793.557 464.812,-798.458 461.389,-792.668 463.824,-803.36 463.824,-803.36"/>
</g>
<!-- Question&#45;&gt;ExamBoard -->
<g id="edge7" class="edge"><title>Question&#45;&gt;ExamBoard</title>
<path fill="none" stroke="#e3974a" d="M407.875,-946.681C411.873,-939.876 415.868,-933.075 419.715,-926.524"/>
<polygon fill="#e3974a" stroke="#e3974a" points="407.841,-946.739 398.896,-953.083 405.308,-951.051 402.776,-955.362 402.776,-955.362 402.776,-955.362 405.308,-951.051 406.656,-957.641 407.841,-946.739 407.841,-946.739"/>
<polygon fill="#e3974a" stroke="#e3974a" points="419.793,-926.392 428.738,-920.049 422.325,-922.081 424.858,-917.77 424.858,-917.77 424.858,-917.77 422.325,-922.081 420.978,-915.491 419.793,-926.392 419.793,-926.392"/>
</g>
<!-- QuestionPart -->
<g id="node8" class="node"><title>QuestionPart</title>
<path fill="none" stroke="black" d="M371.182,-193.5C371.182,-193.5 480.193,-193.5 480.193,-193.5 486.193,-193.5 492.193,-199.5 492.193,-205.5 492.193,-205.5 492.193,-323.5 492.193,-323.5 492.193,-329.5 486.193,-335.5 480.193,-335.5 480.193,-335.5 371.182,-335.5 371.182,-335.5 365.182,-335.5 359.182,-329.5 359.182,-323.5 359.182,-323.5 359.182,-205.5 359.182,-205.5 359.182,-199.5 365.182,-193.5 371.182,-193.5"/>
<text text-anchor="middle" x="425.688" y="-320.3" font-family="Times,serif" font-size="14.00">QuestionPart</text>
<polyline fill="none" stroke="black" points="359.182,-313.5 492.193,-313.5 "/>
<text text-anchor="start" x="367.182" y="-298.3" font-family="Times,serif" font-size="14.00">id :integer</text>
<text text-anchor="start" x="367.182" y="-284.3" font-family="Times,serif" font-size="14.00">number :integer</text>
<text text-anchor="start" x="367.182" y="-270.3" font-family="Times,serif" font-size="14.00">description :text</text>
<text text-anchor="start" x="367.182" y="-256.3" font-family="Times,serif" font-size="14.00">marks :integer</text>
<text text-anchor="start" x="367.182" y="-242.3" font-family="Times,serif" font-size="14.00">answer_type :string</text>
<text text-anchor="start" x="367.182" y="-228.3" font-family="Times,serif" font-size="14.00">question_id :integer</text>
<text text-anchor="start" x="367.182" y="-214.3" font-family="Times,serif" font-size="14.00">created_at :datetime</text>
<text text-anchor="start" x="367.182" y="-200.3" font-family="Times,serif" font-size="14.00">updated_at :datetime</text>
</g>
<!-- Question&#45;&gt;QuestionPart -->
<g id="edge5" class="edge"><title>Question&#45;&gt;QuestionPart</title>
<path fill="none" stroke="#4e61d9" d="M324.664,-947.714C315.12,-925.35 307.688,-900.051 307.688,-875.5 307.688,-875.5 307.688,-875.5 307.688,-513.5 307.688,-441.813 298.429,-417.505 331.688,-354 337.131,-343.607 344.278,-333.764 352.205,-324.68"/>
<ellipse fill="none" stroke="#4e61d9" cx="326.352" cy="-951.524" rx="4.00002" ry="4.00002"/>
<polygon fill="#4e61d9" stroke="#4e61d9" points="352.271,-324.607 362.344,-320.273 355.649,-320.921 359.026,-317.234 359.026,-317.234 359.026,-317.234 355.649,-320.921 355.708,-314.194 352.271,-324.607 352.271,-324.607"/>
</g>
<!-- Question&#45;&gt;Test -->
<g id="edge6" class="edge"><title>Question&#45;&gt;Test</title>
<path fill="none" stroke="#d51c29" d="M351.478,-945.331C348.218,-923.005 345.688,-898.326 345.688,-875.5 345.688,-875.5 345.688,-875.5 345.688,-513.5 345.688,-450.487 323.104,-420.344 364.688,-373 406.309,-325.613 441.504,-354.863 501.688,-336 539.867,-324.034 581.661,-309.314 616.891,-296.425"/>
<polygon fill="#d51c29" stroke="#d51c29" points="351.508,-945.524 348.573,-956.09 352.265,-950.466 353.021,-955.409 353.021,-955.409 353.021,-955.409 352.265,-950.466 357.47,-954.728 351.508,-945.524 351.508,-945.524"/>
<polygon fill="#d51c29" stroke="#d51c29" points="617.259,-296.29 628.197,-297.066 621.952,-294.566 626.646,-292.842 626.646,-292.842 626.646,-292.842 621.952,-294.566 625.094,-288.618 617.259,-296.29 617.259,-296.29"/>
</g>
<!-- QuestionPart&#45;&gt;Answer -->
<g id="edge8" class="edge"><title>QuestionPart&#45;&gt;Answer</title>
<path fill="none" stroke="#92d5a4" d="M497.368,-199.321C503.26,-191.616 508.534,-183.462 512.688,-175 516.138,-167.971 518.819,-160.364 520.892,-152.58"/>
<ellipse fill="none" stroke="#92d5a4" cx="494.782" cy="-202.559" rx="4.00002" ry="4.00002"/>
<polygon fill="#92d5a4" stroke="#92d5a4" points="520.936,-152.393 527.589,-143.676 522.071,-147.523 523.207,-142.654 523.207,-142.654 523.207,-142.654 522.071,-147.523 518.824,-141.632 520.936,-152.393 520.936,-152.393"/>
</g>
<!-- QuestionPart&#45;&gt;Answer -->
<g id="edge9" class="edge"><title>QuestionPart&#45;&gt;Answer</title>
<path fill="none" stroke="#21f7c8" d="M416.408,-185.282C417.554,-176.857 419.685,-168.596 423.184,-161 428.046,-150.444 434.858,-140.679 442.691,-131.791"/>
<ellipse fill="none" stroke="#21f7c8" cx="415.995" cy="-189.413" rx="4" ry="4"/>
<ellipse fill="#21f7c8" stroke="#21f7c8" cx="445.545" cy="-128.711" rx="4.00002" ry="4.00002"/>
<text text-anchor="middle" x="466.44" y="-163.8" font-family="Times,serif" font-size="14.00">correct_answer</text>
</g>
<!-- Student -->
<g id="node10" class="node"><title>Student</title>
<path fill="none" stroke="black" d="M385.41,-373.5C385.41,-373.5 565.966,-373.5 565.966,-373.5 571.966,-373.5 577.966,-379.5 577.966,-385.5 577.966,-385.5 577.966,-643.5 577.966,-643.5 577.966,-649.5 571.966,-655.5 565.966,-655.5 565.966,-655.5 385.41,-655.5 385.41,-655.5 379.41,-655.5 373.41,-649.5 373.41,-643.5 373.41,-643.5 373.41,-385.5 373.41,-385.5 373.41,-379.5 379.41,-373.5 385.41,-373.5"/>
<text text-anchor="middle" x="475.688" y="-640.3" font-family="Times,serif" font-size="14.00">Student</text>
<polyline fill="none" stroke="black" points="373.41,-633.5 577.966,-633.5 "/>
<text text-anchor="start" x="381.41" y="-618.3" font-family="Times,serif" font-size="14.00">id :integer</text>
<text text-anchor="start" x="381.41" y="-604.3" font-family="Times,serif" font-size="14.00">email :string</text>
<text text-anchor="start" x="381.41" y="-590.3" font-family="Times,serif" font-size="14.00">encrypted_password :string</text>
<text text-anchor="start" x="381.41" y="-576.3" font-family="Times,serif" font-size="14.00">reset_password_token :string</text>
<text text-anchor="start" x="381.41" y="-562.3" font-family="Times,serif" font-size="14.00">reset_password_sent_at :datetime</text>
<text text-anchor="start" x="381.41" y="-548.3" font-family="Times,serif" font-size="14.00">remember_created_at :datetime</text>
<text text-anchor="start" x="381.41" y="-534.3" font-family="Times,serif" font-size="14.00">sign_in_count :integer</text>
<text text-anchor="start" x="381.41" y="-520.3" font-family="Times,serif" font-size="14.00">current_sign_in_at :datetime</text>
<text text-anchor="start" x="381.41" y="-506.3" font-family="Times,serif" font-size="14.00">last_sign_in_at :datetime</text>
<text text-anchor="start" x="381.41" y="-492.3" font-family="Times,serif" font-size="14.00">current_sign_in_ip :string</text>
<text text-anchor="start" x="381.41" y="-478.3" font-family="Times,serif" font-size="14.00">last_sign_in_ip :string</text>
<text text-anchor="start" x="381.41" y="-464.3" font-family="Times,serif" font-size="14.00">created_at :datetime</text>
<text text-anchor="start" x="381.41" y="-450.3" font-family="Times,serif" font-size="14.00">updated_at :datetime</text>
<text text-anchor="start" x="381.41" y="-436.3" font-family="Times,serif" font-size="14.00">type :string</text>
<text text-anchor="start" x="381.41" y="-422.3" font-family="Times,serif" font-size="14.00">first_name :string</text>
<text text-anchor="start" x="381.41" y="-408.3" font-family="Times,serif" font-size="14.00">last_name :string</text>
<text text-anchor="start" x="381.41" y="-394.3" font-family="Times,serif" font-size="14.00">birthday :date</text>
<text text-anchor="start" x="381.41" y="-380.3" font-family="Times,serif" font-size="14.00">school_id :integer</text>
</g>
<!-- School&#45;&gt;Student -->
<g id="edge10" class="edge"><title>School&#45;&gt;Student</title>
<path fill="none" stroke="#89fa04" d="M475.688,-684.971C475.688,-678.92 475.688,-672.585 475.688,-666.068"/>
<ellipse fill="none" stroke="#89fa04" cx="475.688" cy="-689.244" rx="4" ry="4"/>
<polygon fill="#89fa04" stroke="#89fa04" points="475.688,-665.689 480.188,-655.689 475.688,-660.689 475.688,-655.689 475.688,-655.689 475.688,-655.689 475.688,-660.689 471.188,-655.689 475.688,-665.689 475.688,-665.689"/>
</g>
<!-- Teacher -->
<g id="node11" class="node"><title>Teacher</title>
<path fill="none" stroke="black" d="M608.41,-373.5C608.41,-373.5 788.966,-373.5 788.966,-373.5 794.966,-373.5 800.966,-379.5 800.966,-385.5 800.966,-385.5 800.966,-643.5 800.966,-643.5 800.966,-649.5 794.966,-655.5 788.966,-655.5 788.966,-655.5 608.41,-655.5 608.41,-655.5 602.41,-655.5 596.41,-649.5 596.41,-643.5 596.41,-643.5 596.41,-385.5 596.41,-385.5 596.41,-379.5 602.41,-373.5 608.41,-373.5"/>
<text text-anchor="middle" x="698.688" y="-640.3" font-family="Times,serif" font-size="14.00">Teacher</text>
<polyline fill="none" stroke="black" points="596.41,-633.5 800.966,-633.5 "/>
<text text-anchor="start" x="604.41" y="-618.3" font-family="Times,serif" font-size="14.00">id :integer</text>
<text text-anchor="start" x="604.41" y="-604.3" font-family="Times,serif" font-size="14.00">email :string</text>
<text text-anchor="start" x="604.41" y="-590.3" font-family="Times,serif" font-size="14.00">encrypted_password :string</text>
<text text-anchor="start" x="604.41" y="-576.3" font-family="Times,serif" font-size="14.00">reset_password_token :string</text>
<text text-anchor="start" x="604.41" y="-562.3" font-family="Times,serif" font-size="14.00">reset_password_sent_at :datetime</text>
<text text-anchor="start" x="604.41" y="-548.3" font-family="Times,serif" font-size="14.00">remember_created_at :datetime</text>
<text text-anchor="start" x="604.41" y="-534.3" font-family="Times,serif" font-size="14.00">sign_in_count :integer</text>
<text text-anchor="start" x="604.41" y="-520.3" font-family="Times,serif" font-size="14.00">current_sign_in_at :datetime</text>
<text text-anchor="start" x="604.41" y="-506.3" font-family="Times,serif" font-size="14.00">last_sign_in_at :datetime</text>
<text text-anchor="start" x="604.41" y="-492.3" font-family="Times,serif" font-size="14.00">current_sign_in_ip :string</text>
<text text-anchor="start" x="604.41" y="-478.3" font-family="Times,serif" font-size="14.00">last_sign_in_ip :string</text>
<text text-anchor="start" x="604.41" y="-464.3" font-family="Times,serif" font-size="14.00">created_at :datetime</text>
<text text-anchor="start" x="604.41" y="-450.3" font-family="Times,serif" font-size="14.00">updated_at :datetime</text>
<text text-anchor="start" x="604.41" y="-436.3" font-family="Times,serif" font-size="14.00">type :string</text>
<text text-anchor="start" x="604.41" y="-422.3" font-family="Times,serif" font-size="14.00">first_name :string</text>
<text text-anchor="start" x="604.41" y="-408.3" font-family="Times,serif" font-size="14.00">last_name :string</text>
<text text-anchor="start" x="604.41" y="-394.3" font-family="Times,serif" font-size="14.00">birthday :date</text>
<text text-anchor="start" x="604.41" y="-380.3" font-family="Times,serif" font-size="14.00">school_id :integer</text>
</g>
<!-- School&#45;&gt;Teacher -->
<g id="edge11" class="edge"><title>School&#45;&gt;Teacher</title>
<path fill="none" stroke="#fc223d" d="M550.412,-688.21C562.96,-677.999 575.52,-667.046 586.688,-656 587.492,-655.205 588.295,-654.404 589.099,-653.598"/>
<ellipse fill="none" stroke="#fc223d" cx="546.977" cy="-690.972" rx="4.00002" ry="4.00002"/>
<polygon fill="#fc223d" stroke="#fc223d" points="589.327,-653.364 599.531,-649.35 592.819,-649.786 596.311,-646.207 596.311,-646.207 596.311,-646.207 592.819,-649.786 593.09,-643.064 589.327,-653.364 589.327,-653.364"/>
</g>
<!-- Student&#45;&gt;Test -->
<g id="edge12" class="edge"><title>Student&#45;&gt;Test</title>
<path fill="none" stroke="#f2f817" d="M583.551,-377.589C584.932,-376.046 586.312,-374.516 587.688,-373 601.048,-358.286 615.972,-343.085 630.435,-328.911"/>
<ellipse fill="none" stroke="#f2f817" cx="580.871" cy="-380.609" rx="4.00002" ry="4.00002"/>
<polygon fill="#f2f817" stroke="#f2f817" points="630.78,-328.576 641.085,-324.826 634.363,-325.088 637.946,-321.601 637.946,-321.601 637.946,-321.601 634.363,-325.088 634.808,-318.376 630.78,-328.576 630.78,-328.576"/>
</g>
<!-- Teacher&#45;&gt;Test -->
<g id="edge13" class="edge"><title>Teacher&#45;&gt;Test</title>
<path fill="none" stroke="#1bd19d" d="M698.688,-365.13C698.688,-353.623 698.688,-342.408 698.688,-331.902"/>
<ellipse fill="none" stroke="#1bd19d" cx="698.688" cy="-369.194" rx="4" ry="4"/>
<polygon fill="#1bd19d" stroke="#1bd19d" points="698.688,-331.648 703.188,-321.648 698.688,-326.648 698.688,-321.648 698.688,-321.648 698.688,-321.648 698.688,-326.648 694.188,-321.648 698.688,-331.648 698.688,-331.648"/>
</g>
<!-- Test&#45;&gt;Answer -->
<g id="edge14" class="edge"><title>Test&#45;&gt;Answer</title>
<path fill="none" stroke="#f18c96" d="M642.611,-201.229C628.025,-185.032 612.127,-167.377 596.911,-150.48"/>
<ellipse fill="none" stroke="#f18c96" cx="645.568" cy="-204.512" rx="4.00002" ry="4.00002"/>
<polygon fill="#f18c96" stroke="#f18c96" points="596.667,-150.209 593.319,-139.767 593.321,-146.494 589.975,-142.778 589.975,-142.778 589.975,-142.778 593.321,-146.494 586.631,-145.789 596.667,-150.209 596.667,-150.209"/>
</g>
<!-- User -->
<g id="node13" class="node"><title>User</title>
<path fill="none" stroke="black" d="M868.41,-373.5C868.41,-373.5 1048.97,-373.5 1048.97,-373.5 1054.97,-373.5 1060.97,-379.5 1060.97,-385.5 1060.97,-385.5 1060.97,-643.5 1060.97,-643.5 1060.97,-649.5 1054.97,-655.5 1048.97,-655.5 1048.97,-655.5 868.41,-655.5 868.41,-655.5 862.41,-655.5 856.41,-649.5 856.41,-643.5 856.41,-643.5 856.41,-385.5 856.41,-385.5 856.41,-379.5 862.41,-373.5 868.41,-373.5"/>
<text text-anchor="middle" x="958.688" y="-640.3" font-family="Times,serif" font-size="14.00">User</text>
<polyline fill="none" stroke="black" points="856.41,-633.5 1060.97,-633.5 "/>
<text text-anchor="start" x="864.41" y="-618.3" font-family="Times,serif" font-size="14.00">id :integer</text>
<text text-anchor="start" x="864.41" y="-604.3" font-family="Times,serif" font-size="14.00">email :string</text>
<text text-anchor="start" x="864.41" y="-590.3" font-family="Times,serif" font-size="14.00">encrypted_password :string</text>
<text text-anchor="start" x="864.41" y="-576.3" font-family="Times,serif" font-size="14.00">reset_password_token :string</text>
<text text-anchor="start" x="864.41" y="-562.3" font-family="Times,serif" font-size="14.00">reset_password_sent_at :datetime</text>
<text text-anchor="start" x="864.41" y="-548.3" font-family="Times,serif" font-size="14.00">remember_created_at :datetime</text>
<text text-anchor="start" x="864.41" y="-534.3" font-family="Times,serif" font-size="14.00">sign_in_count :integer</text>
<text text-anchor="start" x="864.41" y="-520.3" font-family="Times,serif" font-size="14.00">current_sign_in_at :datetime</text>
<text text-anchor="start" x="864.41" y="-506.3" font-family="Times,serif" font-size="14.00">last_sign_in_at :datetime</text>
<text text-anchor="start" x="864.41" y="-492.3" font-family="Times,serif" font-size="14.00">current_sign_in_ip :string</text>
<text text-anchor="start" x="864.41" y="-478.3" font-family="Times,serif" font-size="14.00">last_sign_in_ip :string</text>
<text text-anchor="start" x="864.41" y="-464.3" font-family="Times,serif" font-size="14.00">created_at :datetime</text>
<text text-anchor="start" x="864.41" y="-450.3" font-family="Times,serif" font-size="14.00">updated_at :datetime</text>
<text text-anchor="start" x="864.41" y="-436.3" font-family="Times,serif" font-size="14.00">type :string</text>
<text text-anchor="start" x="864.41" y="-422.3" font-family="Times,serif" font-size="14.00">first_name :string</text>
<text text-anchor="start" x="864.41" y="-408.3" font-family="Times,serif" font-size="14.00">last_name :string</text>
<text text-anchor="start" x="864.41" y="-394.3" font-family="Times,serif" font-size="14.00">birthday :date</text>
<text text-anchor="start" x="864.41" y="-380.3" font-family="Times,serif" font-size="14.00">school_id :integer</text>
</g>
<!-- User&#45;&gt;Test -->
<g id="edge15" class="edge"><title>User&#45;&gt;Test</title>
<path fill="none" stroke="#e78c7d" d="M856.264,-367.32C851.813,-362.708 847.282,-358.251 842.688,-354 823.862,-336.584 801.107,-320.744 779.3,-307.435"/>
<ellipse fill="none" stroke="#e78c7d" cx="859.111" cy="-370.334" rx="4.00002" ry="4.00002"/>
<polygon fill="#e78c7d" stroke="#e78c7d" points="779.256,-307.409 772.989,-298.41 774.966,-304.84 770.677,-302.271 770.677,-302.271 770.677,-302.271 774.966,-304.84 768.364,-306.131 779.256,-307.409 779.256,-307.409"/>
</g>
<!-- YearGroup -->
<g id="node14" class="node"><title>YearGroup</title>
<path fill="none" stroke="black" d="M311.182,-1121.5C311.182,-1121.5 420.193,-1121.5 420.193,-1121.5 426.193,-1121.5 432.193,-1127.5 432.193,-1133.5 432.193,-1133.5 432.193,-1195.5 432.193,-1195.5 432.193,-1201.5 426.193,-1207.5 420.193,-1207.5 420.193,-1207.5 311.182,-1207.5 311.182,-1207.5 305.182,-1207.5 299.182,-1201.5 299.182,-1195.5 299.182,-1195.5 299.182,-1133.5 299.182,-1133.5 299.182,-1127.5 305.182,-1121.5 311.182,-1121.5"/>
<text text-anchor="middle" x="365.688" y="-1192.3" font-family="Times,serif" font-size="14.00">YearGroup</text>
<polyline fill="none" stroke="black" points="299.182,-1185.5 432.193,-1185.5 "/>
<text text-anchor="start" x="307.182" y="-1170.3" font-family="Times,serif" font-size="14.00">id :integer</text>
<text text-anchor="start" x="307.182" y="-1156.3" font-family="Times,serif" font-size="14.00">name :string</text>
<text text-anchor="start" x="307.182" y="-1142.3" font-family="Times,serif" font-size="14.00">created_at :datetime</text>
<text text-anchor="start" x="307.182" y="-1128.3" font-family="Times,serif" font-size="14.00">updated_at :datetime</text>
</g>
<!-- YearGroup&#45;&gt;Question -->
<g id="edge16" class="edge"><title>YearGroup&#45;&gt;Question</title>
<path fill="none" stroke="#544bb8" d="M365.688,-1113.12C365.688,-1106.85 365.688,-1100.33 365.688,-1093.79"/>
<ellipse fill="none" stroke="#544bb8" cx="365.688" cy="-1117.37" rx="4" ry="4"/>
<polygon fill="#544bb8" stroke="#544bb8" points="365.688,-1093.53 370.188,-1083.53 365.688,-1088.53 365.688,-1083.53 365.688,-1083.53 365.688,-1083.53 365.688,-1088.53 361.188,-1083.53 365.688,-1093.53 365.688,-1093.53"/>
</g>
</g>
</svg>
