<?xml version="1.0" encoding="UTF-8" standalone="no"?>
<!DOCTYPE svg PUBLIC "-//W3C//DTD SVG 1.1//EN"
 "http://www.w3.org/Graphics/SVG/1.1/DTD/svg11.dtd">
<!-- Generated by graphviz version 2.38.0 (20140413.2041)
 -->
<!-- Title: models_diagram Pages: 1 -->
<svg width="730pt" height="532pt"
 viewBox="0.00 0.00 730.36 532.00" xmlns="http://www.w3.org/2000/svg" xmlns:xlink="http://www.w3.org/1999/xlink">
<g id="graph0" class="graph" transform="scale(1 1) rotate(0) translate(4 528)">
<title>models_diagram</title>
<polygon fill="white" stroke="none" points="-4,4 -4,-528 726.36,-528 726.36,4 -4,4"/>
<!-- _diagram_info -->
<g id="node1" class="node"><title>_diagram_info</title>
<text text-anchor="start" x="8" y="-509.6" font-family="Times,serif" font-size="13.00">Models diagram</text>
<text text-anchor="start" x="8" y="-496.6" font-family="Times,serif" font-size="13.00">Date: Mar 17 2015 &#45; 11:09</text>
<text text-anchor="start" x="8" y="-483.6" font-family="Times,serif" font-size="13.00">Migration version: 20150316153019</text>
<text text-anchor="start" x="8" y="-470.6" font-family="Times,serif" font-size="13.00">Generated by RailRoady 1.3.0</text>
<text text-anchor="start" x="8" y="-457.6" font-family="Times,serif" font-size="13.00">http://railroady.prestonlee.com</text>
</g>
<!-- Ability -->
<g id="node2" class="node"><title>Ability</title>
<polygon fill="none" stroke="black" points="281.358,-505.5 226.018,-505.5 226.018,-469.5 281.358,-469.5 281.358,-505.5"/>
<text text-anchor="middle" x="253.688" y="-483.3" font-family="Times,serif" font-size="14.00">Ability</text>
</g>
<!-- Admin -->
<g id="node3" class="node"><title>Admin</title>
<ellipse fill="none" stroke="black" cx="687.688" cy="-177" rx="34.8458" ry="18"/>
<text text-anchor="middle" x="687.688" y="-172.8" font-family="Times,serif" font-size="14.00">Admin</text>
</g>
<!-- Test -->
<g id="node12" class="node"><title>Test</title>
<ellipse fill="none" stroke="black" cx="486.688" cy="-104" rx="27" ry="18"/>
<text text-anchor="middle" x="486.688" y="-99.8" font-family="Times,serif" font-size="14.00">Test</text>
</g>
<!-- Admin&#45;&gt;Test -->
<g id="edge1" class="edge"><title>Admin&#45;&gt;Test</title>
<path fill="none" stroke="#266c79" d="M653.266,-162.559C650.034,-161.34 646.803,-160.137 643.688,-159 601.297,-143.527 552.038,-126.783 520.164,-116.11"/>
<ellipse fill="none" stroke="#266c79" cx="657.017" cy="-163.988" rx="4.00001" ry="4.00001"/>
<polygon fill="#266c79" stroke="#266c79" points="519.942,-116.036 511.883,-108.599 515.2,-114.452 510.457,-112.867 510.457,-112.867 510.457,-112.867 515.2,-114.452 509.032,-117.135 519.942,-116.036 519.942,-116.036"/>
</g>
<!-- Answer -->
<g id="node4" class="node"><title>Answer</title>
<ellipse fill="none" stroke="black" cx="409.688" cy="-18" rx="37.7266" ry="18"/>
<text text-anchor="middle" x="409.688" y="-13.8" font-family="Times,serif" font-size="14.00">Answer</text>
</g>
<!-- Category -->
<g id="node5" class="node"><title>Category</title>
<ellipse fill="none" stroke="black" cx="505.688" cy="-487.5" rx="42.5456" ry="18"/>
<text text-anchor="middle" x="505.688" y="-483.3" font-family="Times,serif" font-size="14.00">Category</text>
</g>
<!-- Question -->
<g id="node7" class="node"><title>Question</title>
<ellipse fill="none" stroke="black" cx="348.688" cy="-396" rx="42.0784" ry="18"/>
<text text-anchor="middle" x="348.688" y="-391.8" font-family="Times,serif" font-size="14.00">Question</text>
</g>
<!-- Category&#45;&gt;Question -->
<g id="edge2" class="edge"><title>Category&#45;&gt;Question</title>
<path fill="none" stroke="#d3517a" d="M473.902,-468.38C447.122,-453.114 408.944,-431.35 381.798,-415.875"/>
<ellipse fill="none" stroke="#d3517a" cx="477.681" cy="-470.535" rx="4.00002" ry="4.00002"/>
<polygon fill="#d3517a" stroke="#d3517a" points="381.734,-415.839 375.275,-406.977 377.391,-413.362 373.047,-410.886 373.047,-410.886 373.047,-410.886 377.391,-413.362 370.818,-414.796 381.734,-415.839 381.734,-415.839"/>
</g>
<!-- Category&#45;&gt;Test -->
<g id="edge3" class="edge"><title>Category&#45;&gt;Test</title>
<path fill="none" stroke="#46c12a" d="M526.685,-462.086C539.207,-445.021 552.688,-421.062 552.688,-397 552.688,-397 552.688,-397 552.688,-176 552.688,-152.715 533.409,-133.86 515.69,-121.448"/>
<polygon fill="#46c12a" stroke="#46c12a" points="526.417,-462.434 516.741,-467.594 523.359,-466.39 520.301,-470.346 520.301,-470.346 520.301,-470.346 523.359,-466.39 523.862,-473.098 526.417,-462.434 526.417,-462.434"/>
<polygon fill="#46c12a" stroke="#46c12a" points="515.569,-121.369 509.678,-112.12 511.389,-118.625 507.209,-115.882 507.209,-115.882 507.209,-115.882 511.389,-118.625 504.74,-119.644 515.569,-121.369 515.569,-121.369"/>
</g>
<!-- ExamBoard -->
<g id="node6" class="node"><title>ExamBoard</title>
<ellipse fill="none" stroke="black" cx="408.688" cy="-323" rx="52.1934" ry="18"/>
<text text-anchor="middle" x="408.688" y="-318.8" font-family="Times,serif" font-size="14.00">ExamBoard</text>
</g>
<!-- School -->
<g id="node9" class="node"><title>School</title>
<ellipse fill="none" stroke="black" cx="408.688" cy="-250" rx="34.8458" ry="18"/>
<text text-anchor="middle" x="408.688" y="-245.8" font-family="Times,serif" font-size="14.00">School</text>
</g>
<!-- ExamBoard&#45;&gt;School -->
<g id="edge4" class="edge"><title>ExamBoard&#45;&gt;School</title>
<path fill="none" stroke="#1a864b" d="M408.688,-296.791C408.688,-290.832 408.688,-284.45 408.688,-278.399"/>
<ellipse fill="none" stroke="#1a864b" cx="408.688" cy="-300.813" rx="4" ry="4"/>
<polygon fill="#1a864b" stroke="#1a864b" points="408.688,-278.029 413.188,-268.029 408.688,-273.029 408.688,-268.029 408.688,-268.029 408.688,-268.029 408.688,-273.029 404.188,-268.029 408.688,-278.029 408.688,-278.029"/>
</g>
<!-- Question&#45;&gt;ExamBoard -->
<g id="edge7" class="edge"><title>Question&#45;&gt;ExamBoard</title>
<path fill="none" stroke="#5584ef" d="M368.806,-371.193C375.052,-363.803 381.94,-355.651 388.21,-348.232"/>
<polygon fill="#5584ef" stroke="#5584ef" points="368.757,-371.251 358.866,-375.984 365.53,-375.07 362.303,-378.889 362.303,-378.889 362.303,-378.889 365.53,-375.07 365.74,-381.794 368.757,-371.251 368.757,-371.251"/>
<polygon fill="#5584ef" stroke="#5584ef" points="388.256,-348.178 398.147,-343.445 391.483,-344.359 394.71,-340.54 394.71,-340.54 394.71,-340.54 391.483,-344.359 391.273,-337.635 388.256,-348.178 388.256,-348.178"/>
</g>
<!-- QuestionPart -->
<g id="node8" class="node"><title>QuestionPart</title>
<ellipse fill="none" stroke="black" cx="308.688" cy="-104" rx="56.07" ry="18"/>
<text text-anchor="middle" x="308.688" y="-99.8" font-family="Times,serif" font-size="14.00">QuestionPart</text>
</g>
<!-- Question&#45;&gt;QuestionPart -->
<g id="edge5" class="edge"><title>Question&#45;&gt;QuestionPart</title>
<path fill="none" stroke="#3536c1" d="M320.495,-375.479C305.731,-362.781 290.688,-344.751 290.688,-324 290.688,-324 290.688,-324 290.688,-176 290.688,-161.049 294.484,-144.856 298.59,-131.715"/>
<ellipse fill="none" stroke="#3536c1" cx="323.66" cy="-378.06" rx="4.00002" ry="4.00002"/>
<polygon fill="#3536c1" stroke="#3536c1" points="298.699,-131.391 306.149,-123.345 300.291,-126.652 301.883,-121.912 301.883,-121.912 301.883,-121.912 300.291,-126.652 297.617,-120.479 298.699,-131.391 298.699,-131.391"/>
</g>
<!-- Question&#45;&gt;Test -->
<g id="edge6" class="edge"><title>Question&#45;&gt;Test</title>
<path fill="none" stroke="#92beb1" d="M337.604,-368.767C332.99,-355.579 328.688,-339.205 328.688,-324 328.688,-324 328.688,-324 328.688,-176 328.688,-149.174 405.426,-125.255 451.943,-113.22"/>
<polygon fill="#92beb1" stroke="#92beb1" points="337.614,-368.795 336.913,-379.739 339.371,-373.477 341.127,-378.158 341.127,-378.158 341.127,-378.158 339.371,-373.477 345.34,-376.578 337.614,-368.795 337.614,-368.795"/>
<polygon fill="#92beb1" stroke="#92beb1" points="451.957,-113.217 462.755,-115.129 456.805,-111.992 461.652,-110.766 461.652,-110.766 461.652,-110.766 456.805,-111.992 460.55,-106.404 451.957,-113.217 451.957,-113.217"/>
</g>
<!-- QuestionPart&#45;&gt;Answer -->
<g id="edge8" class="edge"><title>QuestionPart&#45;&gt;Answer</title>
<path fill="none" stroke="#db58c3" d="M361.876,-90.3714C374.374,-85.2157 386.664,-78.017 395.688,-68 401.123,-61.967 404.46,-53.9615 406.506,-46.1735"/>
<ellipse fill="none" stroke="#db58c3" cx="357.834" cy="-91.9052" rx="4.00001" ry="4.00001"/>
<polygon fill="#db58c3" stroke="#db58c3" points="406.531,-46.0455 412.928,-37.1386 407.525,-41.1451 408.518,-36.2447 408.518,-36.2447 408.518,-36.2447 407.525,-41.1451 404.107,-35.3509 406.531,-46.0455 406.531,-46.0455"/>
</g>
<!-- QuestionPart&#45;&gt;Answer -->
<g id="edge9" class="edge"><title>QuestionPart&#45;&gt;Answer</title>
<path fill="none" stroke="#6daf43" d="M301.471,-78.0474C300.529,-69.7321 301.268,-60.8518 306.184,-54 319.47,-35.4819 343.084,-26.6366 364.406,-22.4635"/>
<ellipse fill="none" stroke="#6daf43" cx="302.189" cy="-82.1386" rx="4.00001" ry="4.00001"/>
<ellipse fill="#6daf43" stroke="#6daf43" cx="368.496" cy="-21.7603" rx="4.00001" ry="4.00001"/>
<text text-anchor="middle" x="348.44" y="-56.8" font-family="Times,serif" font-size="14.00">correct_answer</text>
</g>
<!-- Student -->
<g id="node10" class="node"><title>Student</title>
<ellipse fill="none" stroke="black" cx="393.688" cy="-177" rx="37.2594" ry="18"/>
<text text-anchor="middle" x="393.688" y="-172.8" font-family="Times,serif" font-size="14.00">Student</text>
</g>
<!-- School&#45;&gt;Student -->
<g id="edge10" class="edge"><title>School&#45;&gt;Student</title>
<path fill="none" stroke="#8e0b14" d="M403.362,-223.791C402.071,-217.683 400.687,-211.13 399.38,-204.946"/>
<ellipse fill="none" stroke="#8e0b14" cx="404.23" cy="-227.899" rx="4.00001" ry="4.00001"/>
<polygon fill="#8e0b14" stroke="#8e0b14" points="399.353,-204.813 401.688,-194.099 398.319,-199.921 397.285,-195.029 397.285,-195.029 397.285,-195.029 398.319,-199.921 392.883,-195.959 399.353,-204.813 399.353,-204.813"/>
</g>
<!-- Teacher -->
<g id="node11" class="node"><title>Teacher</title>
<ellipse fill="none" stroke="black" cx="486.688" cy="-177" rx="37.9172" ry="18"/>
<text text-anchor="middle" x="486.688" y="-172.8" font-family="Times,serif" font-size="14.00">Teacher</text>
</g>
<!-- School&#45;&gt;Teacher -->
<g id="edge11" class="edge"><title>School&#45;&gt;Teacher</title>
<path fill="none" stroke="#bb9c4f" d="M431.392,-228.333C441.105,-219.492 452.461,-209.155 462.347,-200.156"/>
<ellipse fill="none" stroke="#bb9c4f" cx="428.188" cy="-231.25" rx="4.00002" ry="4.00002"/>
<polygon fill="#bb9c4f" stroke="#bb9c4f" points="462.506,-200.012 472.93,-196.608 466.203,-196.646 469.901,-193.28 469.901,-193.28 469.901,-193.28 466.203,-196.646 466.872,-189.953 462.506,-200.012 462.506,-200.012"/>
</g>
<!-- Student&#45;&gt;Test -->
<g id="edge12" class="edge"><title>Student&#45;&gt;Test</title>
<path fill="none" stroke="#9c5dbc" d="M419.532,-156.27C432.652,-146.253 448.526,-134.134 461.546,-124.194"/>
<ellipse fill="none" stroke="#9c5dbc" cx="416.137" cy="-158.861" rx="4.00002" ry="4.00002"/>
<polygon fill="#9c5dbc" stroke="#9c5dbc" points="461.683,-124.089 472.362,-121.598 465.658,-121.055 469.632,-118.021 469.632,-118.021 469.632,-118.021 465.658,-121.055 466.901,-114.444 461.683,-124.089 461.683,-124.089"/>
</g>
<!-- Teacher&#45;&gt;Test -->
<g id="edge13" class="edge"><title>Teacher&#45;&gt;Test</title>
<path fill="none" stroke="#6c4161" d="M486.688,-150.791C486.688,-144.832 486.688,-138.45 486.688,-132.399"/>
<ellipse fill="none" stroke="#6c4161" cx="486.688" cy="-154.813" rx="4" ry="4"/>
<polygon fill="#6c4161" stroke="#6c4161" points="486.688,-132.029 491.188,-122.029 486.688,-127.029 486.688,-122.029 486.688,-122.029 486.688,-122.029 486.688,-127.029 482.188,-122.029 486.688,-132.029 486.688,-132.029"/>
</g>
<!-- Test&#45;&gt;Answer -->
<g id="edge14" class="edge"><title>Test&#45;&gt;Answer</title>
<path fill="none" stroke="#4e435d" d="M467.814,-82.4101C456.69,-70.2755 442.583,-54.8861 431.053,-42.3071"/>
<ellipse fill="none" stroke="#4e435d" cx="470.572" cy="-85.4197" rx="4.00002" ry="4.00002"/>
<polygon fill="#4e435d" stroke="#4e435d" points="431.013,-42.2639 427.573,-31.8516 427.634,-38.5781 424.256,-34.8923 424.256,-34.8923 424.256,-34.8923 427.634,-38.5781 420.939,-37.9331 431.013,-42.2639 431.013,-42.2639"/>
</g>
<!-- User -->
<g id="node13" class="node"><title>User</title>
<ellipse fill="none" stroke="black" cx="607.688" cy="-177" rx="27" ry="18"/>
<text text-anchor="middle" x="607.688" y="-172.8" font-family="Times,serif" font-size="14.00">User</text>
</g>
<!-- User&#45;&gt;Test -->
<g id="edge15" class="edge"><title>User&#45;&gt;Test</title>
<path fill="none" stroke="#a6ce43" d="M587.401,-155.991C581.084,-150.383 573.881,-144.575 566.688,-140 551.997,-130.656 534.387,-122.652 519.434,-116.666"/>
<ellipse fill="none" stroke="#a6ce43" cx="590.441" cy="-158.777" rx="4.00002" ry="4.00002"/>
<polygon fill="#a6ce43" stroke="#a6ce43" points="519.373,-116.643 511.674,-108.834 514.71,-114.837 510.048,-113.03 510.048,-113.03 510.048,-113.03 514.71,-114.837 508.422,-117.226 519.373,-116.643 519.373,-116.643"/>
</g>
<!-- YearGroup -->
<g id="node14" class="node"><title>YearGroup</title>
<ellipse fill="none" stroke="black" cx="348.688" cy="-487.5" rx="49.0085" ry="18"/>
<text text-anchor="middle" x="348.688" y="-483.3" font-family="Times,serif" font-size="14.00">YearGroup</text>
</g>
<!-- YearGroup&#45;&gt;Question -->
<g id="edge16" class="edge"><title>YearGroup&#45;&gt;Question</title>
<path fill="none" stroke="#fcbe8d" d="M348.688,-460.903C348.688,-449.441 348.688,-435.914 348.688,-424.263"/>
<ellipse fill="none" stroke="#fcbe8d" cx="348.688" cy="-465.243" rx="4" ry="4"/>
<polygon fill="#fcbe8d" stroke="#fcbe8d" points="348.688,-424.204 353.188,-414.203 348.688,-419.204 348.688,-414.204 348.688,-414.204 348.688,-414.204 348.688,-419.204 344.188,-414.204 348.688,-424.204 348.688,-424.204"/>
</g>
</g>
</svg>
